<svg width="24" height="24" viewBox="0 0 24 24" fill="none" xmlns="http://www.w3.org/2000/svg">
<path d="M10 19C9.44772 19 9 18.5523 9 18V18C9 17.4477 9.44772 17 10 17H16C16.5523 17 17 17.4477 17 18V18C17 18.5523 16.5523 19 16 19H10ZM10 15C9.44772 15 9 14.5523 9 14V14C9 13.4477 9.44772 13 10 13H20C20.5523 13 21 13.4477 21 14V14C21 14.5523 20.5523 15 20 15H10ZM4 15C3.44772 15 3 14.5523 3 14V14C3 13.4477 3.44772 13 4 13H6C6.55228 13 7 13.4477 7 14V14C7 14.5523 6.55228 15 6 15H4ZM10 11C9.44772 11 9 10.5523 9 10V10C9 9.44772 9.44772 9 10 9H16C16.5523 9 17 9.44772 17 10V10C17 10.5523 16.5523 11 16 11H10ZM10 7C9.44772 7 9 6.55228 9 6V6C9 5.44772 9.44772 5 10 5H20C20.5523 5 21 5.44772 21 6V6C21 6.55228 20.5523 7 20 7H10ZM4 7C3.44772 7 3 6.55228 3 6V6C3 5.44772 3.44772 5 4 5H6C6.55228 5 7 5.44772 7 6V6C7 6.55228 6.55228 7 6 7H4Z" fill="black"/>
</svg>
