<svg width="24" height="24" viewBox="0 0 24 24" fill="none" xmlns="http://www.w3.org/2000/svg">
<path d="M8.5 23H8C7.73478 23 7.48038 22.8946 7.29285 22.707C7.10531 22.5195 7 22.2652 7 22V19H3C2.46957 19 1.96089 18.7894 1.58582 18.4143C1.21074 18.0392 1 17.5304 1 17V5C1 4.46957 1.21074 3.96077 1.58582 3.58569C1.96089 3.21062 2.46957 3 3 3H14C14.5523 3 15 3.44772 15 4V4C15 4.55228 14.5523 5 14 5H5V17H9V20.0811L12.079 17H18.999V10C18.999 9.44772 19.4467 9 19.999 9V9C20.5513 9 20.999 9.44772 20.999 10V17C20.999 17.5304 20.7883 18.0392 20.4132 18.4143C20.0381 18.7894 19.5295 19 18.999 19H12.899L9.19897 22.71C9.01184 22.8928 8.76159 22.9966 8.5 23ZM14 13C14 13.5523 13.5523 14 13 14H8C7.44772 14 7 13.5523 7 13V13C7 12.4477 7.44772 12 8 12H13C13.5523 12 14 12.4477 14 13V13ZM16 9C16 9.55228 15.5523 10 15 10H8C7.44772 10 7 9.55228 7 9V9C7 8.44772 7.44772 8 8 8H15C15.5523 8 16 8.44772 16 9V9Z" fill="black"/>
<path d="M21 3H22C22.5523 3 23 3.44772 23 4V4C23 4.55228 22.5523 5 22 5H21V6C21 6.55228 20.5523 7 20 7V7C19.4477 7 19 6.55228 19 6V5H18C17.4477 5 17 4.55228 17 4V4C17 3.44772 17.4477 3 18 3H19V2C19 1.44772 19.4477 1 20 1V1C20.5523 1 21 1.44772 21 2V3Z" fill="black"/>
</svg>
