<svg width="24" height="24" viewBox="0 0 24 24" fill="none" xmlns="http://www.w3.org/2000/svg">
<path d="M19 3H5C3.89 3 3 3.89 3 5V8C3 8.55228 3.44772 9 4 9V9C4.55228 9 5 8.55228 5 8V5H19V19H5V16C5 15.4477 4.55228 15 4 15V15C3.44772 15 3 15.4477 3 16V19C3 19.5304 3.21071 20.0391 3.58579 20.4142C3.96086 20.7893 4.46957 21 5 21H19C19.5304 21 20.0391 20.7893 20.4142 20.4142C20.7893 20.0391 21 19.5304 21 19V5C21 3.89 20.1 3 19 3ZM10.7921 14.8707C10.399 15.2622 10.3984 15.8984 10.7907 16.2907V16.2907C11.1824 16.6824 11.8176 16.6824 12.2093 16.2907L16.5 12L12.205 7.705C11.8152 7.31524 11.1836 7.31412 10.7925 7.70251V7.70251C10.3994 8.09284 10.3983 8.72829 10.79 9.12L12.67 11H4C3.44771 11 3 11.4477 3 12V12C3 12.5523 3.44772 13 4 13H12.67L10.7921 14.8707Z" fill="black"/>
</svg>
