<svg width="24" height="24" viewBox="0 0 24 24" fill="none" xmlns="http://www.w3.org/2000/svg">
<path d="M19 19V5H5V19H19ZM19 3C19.5304 3 20.0391 3.21071 20.4142 3.58579C20.7893 3.96086 21 4.46957 21 5V19C21 19.5304 20.7893 20.0391 20.4142 20.4142C20.0391 20.7893 19.5304 21 19 21H5C4.46957 21 3.96086 20.7893 3.58579 20.4142C3.21071 20.0391 3 19.5304 3 19V5C3 3.89 3.9 3 5 3H19ZM11 8C11 7.44772 11.4477 7 12 7V7C12.5523 7 13 7.44772 13 8V11H16C16.5523 11 17 11.4477 17 12V12C17 12.5523 16.5523 13 16 13H13V16C13 16.5523 12.5523 17 12 17V17C11.4477 17 11 16.5523 11 16V13H8C7.44772 13 7 12.5523 7 12V12C7 11.4477 7.44772 11 8 11H11V8Z" fill="black"/>
</svg>
