<svg width="24" height="24" viewBox="0 0 24 24" fill="none" xmlns="http://www.w3.org/2000/svg">
<path d="M17.9283 6.35C16.4783 4.9 14.4883 4 12.2783 4C10.1566 4 8.12176 4.84285 6.62147 6.34315C5.12118 7.84344 4.27832 9.87827 4.27832 12C4.27832 14.1217 5.12118 16.1566 6.62147 17.6569C8.12176 19.1571 10.1566 20 12.2783 20C15.535 20 18.3191 18.0561 19.5656 15.2665C19.843 14.6455 19.3454 14 18.6652 14V14C18.2237 14 17.8382 14.2831 17.6413 14.6783C16.6603 16.6474 14.6273 18 12.2783 18C10.687 18 9.1609 17.3679 8.03568 16.2426C6.91046 15.1174 6.27832 13.5913 6.27832 12C6.27832 10.4087 6.91046 8.88258 8.03568 7.75736C9.1609 6.63214 10.687 6 12.2783 6C13.9383 6 15.4183 6.69 16.4983 7.78L13.2783 11H20.2783V4L17.9283 6.35Z" fill="black"/>
</svg>
